<svg width="375" height="206" viewBox="0 0 375 206" fill="none" xmlns="http://www.w3.org/2000/svg">
<rect width="375" height="206" fill="#212121"/>
<g clip-path="url(#clip0_1444_2063)">
<path fill-rule="evenodd" clip-rule="evenodd" d="M225 46C225 44.8954 225.895 44 227 44H353C354.105 44 355 44.8954 355 46V76C350.582 76 347 79.5817 347 84C347 88.4183 350.582 92 355 92V122C355 123.105 354.105 124 353 124H227C225.895 124 225 123.105 225 122V92C229.418 92 233 88.4183 233 84C233 79.5817 229.418 76 225 76V46Z" fill="#E42E37"/>
<path d="M246.251 101V99.368L253.091 92.768C253.699 92.192 254.147 91.688 254.435 91.256C254.739 90.808 254.939 90.4 255.035 90.032C255.147 89.648 255.203 89.28 255.203 88.928C255.203 88.064 254.899 87.384 254.291 86.888C253.683 86.392 252.795 86.144 251.627 86.144C250.731 86.144 249.923 86.296 249.203 86.6C248.483 86.888 247.859 87.344 247.331 87.968L245.699 86.552C246.339 85.736 247.195 85.112 248.267 84.68C249.355 84.232 250.547 84.008 251.843 84.008C253.011 84.008 254.027 84.2 254.891 84.584C255.755 84.952 256.419 85.488 256.883 86.192C257.363 86.896 257.603 87.728 257.603 88.688C257.603 89.232 257.531 89.768 257.387 90.296C257.243 90.824 256.971 91.384 256.571 91.976C256.171 92.568 255.595 93.232 254.843 93.968L248.747 99.848L248.171 98.912H258.323V101H246.251ZM260.651 104.552L261.851 99.704L262.163 101.096C261.699 101.096 261.307 100.952 260.987 100.664C260.683 100.376 260.531 99.984 260.531 99.488C260.531 99.008 260.683 98.616 260.987 98.312C261.307 98.008 261.691 97.856 262.139 97.856C262.603 97.856 262.979 98.016 263.267 98.336C263.555 98.64 263.699 99.024 263.699 99.488C263.699 99.648 263.683 99.808 263.651 99.968C263.635 100.112 263.595 100.288 263.531 100.496C263.483 100.688 263.403 100.928 263.291 101.216L262.163 104.552H260.651ZM272.551 101.192C271.239 101.192 270.063 100.856 269.023 100.184C267.999 99.512 267.183 98.536 266.575 97.256C265.983 95.976 265.687 94.424 265.687 92.6C265.687 90.776 265.983 89.224 266.575 87.944C267.183 86.664 267.999 85.688 269.023 85.016C270.063 84.344 271.239 84.008 272.551 84.008C273.847 84.008 275.015 84.344 276.055 85.016C277.095 85.688 277.911 86.664 278.503 87.944C279.095 89.224 279.391 90.776 279.391 92.6C279.391 94.424 279.095 95.976 278.503 97.256C277.911 98.536 277.095 99.512 276.055 100.184C275.015 100.856 273.847 101.192 272.551 101.192ZM272.551 99.056C273.431 99.056 274.199 98.816 274.855 98.336C275.527 97.856 276.047 97.136 276.415 96.176C276.799 95.216 276.991 94.024 276.991 92.6C276.991 91.176 276.799 89.984 276.415 89.024C276.047 88.064 275.527 87.344 274.855 86.864C274.199 86.384 273.431 86.144 272.551 86.144C271.671 86.144 270.895 86.384 270.223 86.864C269.551 87.344 269.023 88.064 268.639 89.024C268.271 89.984 268.087 91.176 268.087 92.6C268.087 94.024 268.271 95.216 268.639 96.176C269.023 97.136 269.551 97.856 270.223 98.336C270.895 98.816 271.671 99.056 272.551 99.056ZM288.559 101.192C287.247 101.192 286.071 100.856 285.031 100.184C284.007 99.512 283.191 98.536 282.583 97.256C281.991 95.976 281.695 94.424 281.695 92.6C281.695 90.776 281.991 89.224 282.583 87.944C283.191 86.664 284.007 85.688 285.031 85.016C286.071 84.344 287.247 84.008 288.559 84.008C289.855 84.008 291.023 84.344 292.063 85.016C293.103 85.688 293.919 86.664 294.511 87.944C295.103 89.224 295.399 90.776 295.399 92.6C295.399 94.424 295.103 95.976 294.511 97.256C293.919 98.536 293.103 99.512 292.063 100.184C291.023 100.856 289.855 101.192 288.559 101.192ZM288.559 99.056C289.439 99.056 290.207 98.816 290.863 98.336C291.535 97.856 292.055 97.136 292.423 96.176C292.807 95.216 292.999 94.024 292.999 92.6C292.999 91.176 292.807 89.984 292.423 89.024C292.055 88.064 291.535 87.344 290.863 86.864C290.207 86.384 289.439 86.144 288.559 86.144C287.679 86.144 286.903 86.384 286.231 86.864C285.559 87.344 285.031 88.064 284.647 89.024C284.279 89.984 284.095 91.176 284.095 92.6C284.095 94.024 284.279 95.216 284.647 96.176C285.031 97.136 285.559 97.856 286.231 98.336C286.903 98.816 287.679 99.056 288.559 99.056ZM304.567 101.192C303.255 101.192 302.079 100.856 301.039 100.184C300.015 99.512 299.199 98.536 298.591 97.256C297.999 95.976 297.703 94.424 297.703 92.6C297.703 90.776 297.999 89.224 298.591 87.944C299.199 86.664 300.015 85.688 301.039 85.016C302.079 84.344 303.255 84.008 304.567 84.008C305.863 84.008 307.031 84.344 308.071 85.016C309.111 85.688 309.927 86.664 310.519 87.944C311.111 89.224 311.407 90.776 311.407 92.6C311.407 94.424 311.111 95.976 310.519 97.256C309.927 98.536 309.111 99.512 308.071 100.184C307.031 100.856 305.863 101.192 304.567 101.192ZM304.567 99.056C305.447 99.056 306.215 98.816 306.871 98.336C307.543 97.856 308.063 97.136 308.431 96.176C308.815 95.216 309.007 94.024 309.007 92.6C309.007 91.176 308.815 89.984 308.431 89.024C308.063 88.064 307.543 87.344 306.871 86.864C306.215 86.384 305.447 86.144 304.567 86.144C303.687 86.144 302.911 86.384 302.239 86.864C301.567 87.344 301.039 88.064 300.655 89.024C300.287 89.984 300.103 91.176 300.103 92.6C300.103 94.024 300.287 95.216 300.655 96.176C301.039 97.136 301.567 97.856 302.239 98.336C302.911 98.816 303.687 99.056 304.567 99.056ZM319.903 92.096H321.895V96.92H319.903V92.096ZM329.527 81.176H331.519V97.664H329.527V81.176ZM316.711 100.76H332.047V102.392H316.711V100.76ZM316.711 96.056H318.703V101.192H316.711V96.056ZM313.903 92.84L313.639 91.184C314.983 91.184 316.439 91.176 318.007 91.16C319.591 91.128 321.207 91.072 322.855 90.992C324.503 90.896 326.095 90.752 327.631 90.56L327.775 92C326.223 92.256 324.623 92.448 322.975 92.576C321.343 92.688 319.751 92.76 318.199 92.792C316.647 92.824 315.215 92.84 313.903 92.84ZM325.111 93.992H330.055V95.432H325.111V93.992ZM320.695 82.04C321.767 82.04 322.703 82.2 323.503 82.52C324.303 82.824 324.919 83.264 325.351 83.84C325.799 84.4 326.023 85.064 326.023 85.832C326.023 86.584 325.799 87.248 325.351 87.824C324.919 88.4 324.303 88.84 323.503 89.144C322.703 89.448 321.767 89.6 320.695 89.6C319.639 89.6 318.703 89.448 317.887 89.144C317.087 88.84 316.463 88.4 316.015 87.824C315.583 87.248 315.367 86.584 315.367 85.832C315.367 85.064 315.583 84.4 316.015 83.84C316.463 83.264 317.087 82.824 317.887 82.52C318.703 82.2 319.639 82.04 320.695 82.04ZM320.695 83.528C319.671 83.528 318.839 83.736 318.199 84.152C317.559 84.568 317.239 85.128 317.239 85.832C317.239 86.52 317.559 87.072 318.199 87.488C318.839 87.904 319.671 88.112 320.695 88.112C321.703 88.112 322.527 87.904 323.167 87.488C323.807 87.072 324.127 86.52 324.127 85.832C324.127 85.352 323.983 84.944 323.695 84.608C323.407 84.272 323.007 84.008 322.495 83.816C321.983 83.624 321.383 83.528 320.695 83.528Z" fill="white"/>
<path opacity="0.8" d="M258.866 63.119H260.608V72.284H258.866V63.119ZM257.306 66.109H259.516V67.487H257.306V66.109ZM257.306 68.683H259.516V70.061H257.306V68.683ZM250.559 64.38H257.176V65.732H250.559V64.38ZM253.939 66.161C254.494 66.161 254.983 66.2607 255.408 66.46C255.833 66.6593 256.166 66.9367 256.409 67.292C256.652 67.6473 256.773 68.059 256.773 68.527C256.773 68.9863 256.652 69.3937 256.409 69.749C256.166 70.1043 255.833 70.386 255.408 70.594C254.983 70.7933 254.494 70.893 253.939 70.893C253.402 70.893 252.916 70.7933 252.483 70.594C252.058 70.386 251.725 70.1043 251.482 69.749C251.239 69.3937 251.118 68.9863 251.118 68.527C251.118 68.059 251.239 67.6473 251.482 67.292C251.725 66.9367 252.058 66.6593 252.483 66.46C252.916 66.2607 253.402 66.161 253.939 66.161ZM253.952 67.487C253.597 67.487 253.306 67.578 253.081 67.76C252.864 67.9333 252.756 68.189 252.756 68.527C252.756 68.8563 252.864 69.112 253.081 69.294C253.306 69.476 253.597 69.567 253.952 69.567C254.299 69.567 254.585 69.476 254.81 69.294C255.035 69.112 255.148 68.8563 255.148 68.527C255.148 68.189 255.035 67.9333 254.81 67.76C254.585 67.578 254.299 67.487 253.952 67.487ZM253.081 63.08H254.823V65.212H253.081V63.08ZM252.639 73.558H260.868V74.949H252.639V73.558ZM252.639 71.53H254.368V74.208H252.639V71.53ZM263.831 63.652H271.449V65.017H263.831V63.652ZM262.492 67.981H273.399V69.346H262.492V67.981ZM270.409 63.652H272.112V64.614C272.112 65.1253 272.099 65.6757 272.073 66.265C272.047 66.8543 271.943 67.539 271.761 68.319L270.032 68.306C270.223 67.5173 270.331 66.8327 270.357 66.252C270.392 65.6713 270.409 65.1253 270.409 64.614V63.652ZM263.766 70.607H272.06V75.027H263.766V70.607ZM270.37 71.959H265.469V73.662H270.37V71.959ZM282.295 64.315H283.829V64.614C283.829 64.978 283.764 65.329 283.634 65.667C283.504 66.005 283.309 66.317 283.049 66.603C282.797 66.889 282.481 67.1447 282.1 67.37C281.718 67.5953 281.276 67.786 280.774 67.942C280.28 68.098 279.725 68.2063 279.11 68.267L278.499 66.915C279.019 66.863 279.482 66.7807 279.89 66.668C280.306 66.5553 280.665 66.4253 280.969 66.278C281.272 66.122 281.519 65.953 281.71 65.771C281.909 65.589 282.056 65.3983 282.152 65.199C282.247 64.9997 282.295 64.8047 282.295 64.614V64.315ZM283.14 64.315H284.661V64.614C284.661 64.8133 284.708 65.0127 284.804 65.212C284.908 65.4027 285.055 65.5933 285.246 65.784C285.436 65.966 285.679 66.135 285.974 66.291C286.277 66.4383 286.632 66.5683 287.04 66.681C287.456 66.785 287.928 66.863 288.457 66.915L287.859 68.267C287.235 68.2063 286.671 68.098 286.169 67.942C285.675 67.786 285.237 67.5997 284.856 67.383C284.483 67.1577 284.167 66.902 283.907 66.616C283.655 66.3213 283.465 66.0093 283.335 65.68C283.205 65.342 283.14 64.9867 283.14 64.614V64.315ZM279.032 63.613H287.95V64.965H279.032V63.613ZM278.031 68.748H288.938V70.126H278.031V68.748ZM279.24 70.971H287.612V75.157H285.883V72.349H279.24V70.971ZM292.928 64.042H294.345V65.784C294.345 66.564 294.275 67.3137 294.137 68.033C293.998 68.7437 293.786 69.411 293.5 70.035C293.222 70.6503 292.863 71.1963 292.421 71.673C291.987 72.141 291.472 72.5137 290.874 72.791L289.847 71.361C290.375 71.127 290.83 70.8193 291.212 70.438C291.602 70.048 291.922 69.606 292.174 69.112C292.425 68.6093 292.611 68.0763 292.733 67.513C292.863 66.9497 292.928 66.3733 292.928 65.784V64.042ZM293.266 64.042H294.67V65.784C294.67 66.3473 294.73 66.8977 294.852 67.435C294.973 67.9723 295.155 68.4793 295.398 68.956C295.649 69.4327 295.961 69.8573 296.334 70.23C296.715 70.594 297.161 70.8843 297.673 71.101L296.672 72.505C296.091 72.2363 295.584 71.8767 295.151 71.426C294.726 70.9753 294.375 70.4553 294.098 69.866C293.82 69.268 293.612 68.6267 293.474 67.942C293.335 67.2487 293.266 66.5293 293.266 65.784V64.042ZM298.258 63.093H299.987V75.17H298.258V63.093ZM308.778 64.939H309.662V66.837C309.662 67.461 309.576 68.0763 309.402 68.683C309.229 69.281 308.986 69.8487 308.674 70.386C308.371 70.9147 308.016 71.3827 307.608 71.79C307.201 72.1973 306.763 72.518 306.295 72.752L305.671 71.894C306.096 71.686 306.495 71.4043 306.867 71.049C307.249 70.6937 307.582 70.2863 307.868 69.827C308.154 69.3677 308.375 68.8823 308.531 68.371C308.696 67.8597 308.778 67.3483 308.778 66.837V64.939ZM308.999 64.939H309.87V66.837C309.87 67.331 309.948 67.825 310.104 68.319C310.269 68.8043 310.494 69.2637 310.78 69.697C311.075 70.1217 311.409 70.4987 311.781 70.828C312.163 71.1573 312.57 71.4173 313.003 71.608L312.405 72.466C311.929 72.2407 311.482 71.9373 311.066 71.556C310.65 71.1747 310.286 70.737 309.974 70.243C309.671 69.7403 309.433 69.203 309.259 68.631C309.086 68.0503 308.999 67.4523 308.999 66.837V64.939ZM306.048 64.458H312.613V65.355H306.048V64.458ZM314.212 63.249H315.291V75.014H314.212V63.249ZM319.008 69.983H320.074V71.53H325.833V69.983H326.899V74.858H319.008V69.983ZM320.074 72.375V73.974H325.833V72.375H320.074ZM318.982 63.782H326.548V64.666H318.982V63.782ZM317.63 68.046H328.29V68.943H317.63V68.046ZM325.846 63.782H326.912V64.653C326.912 65.1297 326.895 65.6583 326.86 66.239C326.826 66.8197 326.717 67.5043 326.535 68.293L325.469 68.306C325.66 67.5087 325.768 66.8197 325.794 66.239C325.829 65.6583 325.846 65.1297 325.846 64.653V63.782Z" fill="white"/>
</g>
<g opacity="0.8">
<path d="M21.1494 49.1914V38.8896H23.6631V39.792H22.2451V48.2783H23.6631V49.1914H21.1494ZM32.2676 38.2988V45.292H31.2471V38.2988H32.2676ZM32.5576 46.8818V47.709H25.9727V44.583H27.0039V46.8818H32.5576ZM27.0469 38.9434C28.4971 38.9434 29.6035 39.9316 29.6035 41.3281C29.6035 42.7461 28.4971 43.7236 27.0469 43.7236C25.5967 43.7236 24.4795 42.7461 24.4795 41.3281C24.4795 39.9316 25.5967 38.9434 27.0469 38.9434ZM27.0469 39.835C26.1445 39.835 25.4785 40.4473 25.4785 41.3281C25.4785 42.2305 26.1445 42.832 27.0469 42.832C27.9277 42.832 28.6045 42.2305 28.6045 41.3281C28.6045 40.4473 27.9277 39.835 27.0469 39.835ZM37.166 40.5762C37.166 41.79 38.0684 42.9072 39.5508 43.3691L39.0566 44.1748C37.9502 43.8257 37.1123 43.0952 36.6826 42.1553C36.2529 43.165 35.4204 43.9492 34.2871 44.3252L33.793 43.5303C35.2646 43.0576 36.1562 41.876 36.1562 40.5762V40.3506H34.0615V39.5234H36.1562V38.3525H37.1768V39.5234H39.2607V40.3506H37.166V40.5762ZM41.8174 38.2988V45.4639H40.7969V42.0371H38.9277V41.21H40.7969V38.2988H41.8174ZM42.0752 46.8818V47.709H35.5654V44.8301H36.5859V46.8818H42.0752ZM51.5605 38.2881V47.9131H50.583V42.9395H49.3369V47.4189H48.4023V38.4814H49.3369V42.1016H50.583V38.2881H51.5605ZM47.2314 39.4482V40.2754H44.6426V44.7334C45.8242 44.7227 46.7158 44.6689 47.7471 44.4756L47.8223 45.3135C46.6621 45.5498 45.6738 45.5928 44.2666 45.6035H43.6221V39.4482H47.2314ZM63.7529 38.2881V47.9131H62.7754V38.2881H63.7529ZM61.7979 38.4922V47.4297H60.8311V42.5312H59.3379V41.6934H60.8311V38.4922H61.7979ZM58.3926 40.9736C58.3926 42.6172 59.0586 44.2607 60.4121 45.0449L59.7998 45.7969C58.8813 45.249 58.2476 44.2769 57.9199 43.1113C57.5708 44.3682 56.9155 45.437 55.9756 46.0225L55.3525 45.2598C56.7168 44.4326 57.415 42.6816 57.415 40.9736V40.2002H55.6426V39.373H60.0469V40.2002H58.3926V40.9736ZM73.2812 39.3193V40.1357H65.4502V39.3193H68.877V38.2451H69.8867V39.3193H73.2812ZM73.8076 44.4434V45.2705H71.584V47.9238H70.5527V45.2705H68.2324V47.9238H67.2119V45.2705H64.999V44.4434H73.8076ZM69.3818 40.6299C71.3799 40.6299 72.583 41.1992 72.583 42.2412C72.583 43.2725 71.3799 43.8525 69.3818 43.8525C67.373 43.8525 66.1699 43.2725 66.1807 42.2412C66.1699 41.1992 67.373 40.6299 69.3818 40.6299ZM69.3818 41.4033C67.9961 41.4141 67.2334 41.6934 67.2334 42.2412C67.2334 42.7783 67.9961 43.0684 69.3818 43.0684C70.7568 43.0684 71.5195 42.7783 71.5303 42.2412C71.5195 41.6934 70.7568 41.4141 69.3818 41.4033ZM85.4736 38.2881V47.9131H84.4961V38.2881H85.4736ZM83.626 38.4814V47.4512H82.6807V44.5293H81.3809C81.0693 45.3081 80.3765 45.7969 79.5117 45.7969C78.3408 45.7969 77.4707 44.873 77.4814 43.541C77.4707 42.209 78.3408 41.2852 79.5117 41.2852C80.7041 41.2852 81.5635 42.209 81.5635 43.541V43.7129H82.6807V42.3379H81.4238V41.5H82.6807V38.4814H83.626ZM81.8965 39.8779V40.7051H77.1699V39.8779H79.0283V38.5352H80.0488V39.8779H81.8965ZM79.5117 42.1553C78.8457 42.166 78.373 42.7031 78.373 43.541C78.373 44.3682 78.8457 44.916 79.5117 44.916C80.1885 44.916 80.6719 44.3682 80.6826 43.541C80.6719 42.7031 80.1885 42.166 79.5117 42.1553ZM90.8555 38.9756V39.8027H88.0732V40.877H90.748V41.6611H88.0732V42.832C89.3623 42.8213 90.2109 42.7729 91.1992 42.585L91.2959 43.4229C90.168 43.6377 89.2549 43.6807 87.7188 43.6699H87.0957V38.9756H90.8555ZM94.9053 38.2988V44.1426H93.9385V41.5752H92.7568V44.0674H91.8008V38.4707H92.7568V40.748H93.9385V38.2988H94.9053ZM94.9053 44.6045V47.9131H93.8955V45.4316H88.3633V44.6045H94.9053ZM107.699 45.8613V46.71H98.8906V45.8613H102.769V43.6377H99.9004V39.0615H106.646V43.6377H103.778V45.8613H107.699ZM100.889 39.8779V42.832H105.647V39.8779H100.889ZM112.78 38.4922C114.896 38.4922 116.218 39.1797 116.218 40.3398C116.218 41.4785 114.896 42.1553 112.78 42.1553C110.675 42.1553 109.343 41.4785 109.343 40.3398C109.343 39.1797 110.675 38.4922 112.78 38.4922ZM112.78 39.2979C111.298 39.2979 110.385 39.6738 110.396 40.3398C110.385 40.9844 111.298 41.3496 112.78 41.3604C114.252 41.3496 115.165 40.9844 115.165 40.3398C115.165 39.6738 114.252 39.2979 112.78 39.2979ZM116.1 44.583V47.7949H109.45V44.583H116.1ZM110.46 45.3994V46.9678H115.111V45.3994H110.46ZM117.174 42.8965V43.7236H108.397V42.8965H117.174ZM120.192 38.8252C121.481 38.8145 122.405 39.7168 122.405 41.0166C122.405 42.3057 121.481 43.208 120.192 43.208C118.903 43.208 117.979 42.3057 117.99 41.0166C117.979 39.7168 118.903 38.8145 120.192 38.8252ZM120.192 39.6523C119.44 39.6523 118.903 40.1895 118.903 41.0166C118.903 41.8223 119.44 42.3701 120.192 42.3701C120.934 42.3701 121.471 41.8223 121.481 41.0166C121.471 40.1895 120.934 39.6523 120.192 39.6523ZM126.111 38.2988V43.5303H125.145V41.2852H124.017V43.4658H123.071V38.4707H124.017V40.4365H125.145V38.2988H126.111ZM120.697 43.9492V45.002H125.112V43.9492H126.111V47.7949H119.688V43.9492H120.697ZM120.697 46.9678H125.112V45.8291H120.697V46.9678ZM130.236 42.3271L131.192 39.2227H132.449L131.934 42.3271H130.236ZM141.161 38.707V39.5879C141.161 40.6084 141.161 41.7578 140.839 43.3477H142.117V44.583H138.4V47.999H136.832V44.583H133.126V43.3477H139.324C139.432 42.875 139.501 42.4346 139.561 42.0264L133.996 42.3057L133.824 40.9951L139.657 40.8447C139.673 40.5171 139.679 40.2109 139.679 39.9209H134.146V38.707H141.161ZM150.979 38.1699V48.0527H149.443V42.9072H147.961V41.6504H149.443V38.1699H150.979ZM147.424 38.9756V42.7461H144.513V44.5078C145.77 44.4971 146.887 44.4487 148.101 44.25L148.219 45.4961C146.769 45.7324 145.404 45.7861 143.804 45.7861H142.977V41.5215H145.909V40.2109H142.944V38.9756H147.424ZM157.436 39.04V45.7217H152.602V39.04H157.436ZM154.148 40.2432V44.4971H155.932V40.2432H154.148ZM160.422 38.1699V48.0527H158.864V38.1699H160.422ZM164.021 39.2227L163.064 42.3271H161.808L162.323 39.2227H164.021ZM172.249 38.9541V41.8545H168.962V43.2402C170.67 43.2349 171.75 43.1865 173.001 42.9717L173.098 43.8096C171.744 44.0244 170.584 44.0674 168.704 44.0674H167.941V41.0488H171.239V39.7705H167.92V38.9541H172.249ZM175.579 38.2988V45.3672H174.559V41.6074H172.829V40.7373H174.559V38.2988H175.579ZM175.858 46.8818V47.709H169.263V44.8193H170.283V46.8818H175.858ZM180.639 40.2861C180.639 41.4355 181.584 42.5098 183.077 42.918L182.594 43.7129C181.466 43.4014 180.606 42.7031 180.155 41.79C179.726 42.7944 178.877 43.584 177.717 43.9492L177.212 43.1436C178.694 42.6924 179.618 41.5322 179.618 40.2861V40.2324H177.48V39.416H179.618V38.2881H180.649V39.416H182.766V40.2324H180.639V40.2861ZM185.043 38.2988V44.1641H184.022V38.2988H185.043ZM181.81 44.3467C183.829 44.3467 185.075 45.002 185.075 46.1191C185.075 47.2471 183.829 47.9023 181.81 47.8916C179.779 47.9023 178.533 47.2471 178.533 46.1191C178.533 45.002 179.779 44.3467 181.81 44.3467ZM181.81 45.1523C180.381 45.1523 179.564 45.5068 179.564 46.1191C179.564 46.7529 180.381 47.1074 181.81 47.1074C183.238 47.1074 184.065 46.7529 184.065 46.1191C184.065 45.5068 183.238 45.1523 181.81 45.1523ZM197.257 38.2881V47.9131H196.226V38.2881H197.257ZM194.389 39.3193C194.389 42.1338 193.186 44.583 189.888 46.1621L189.351 45.335C191.913 44.1157 193.159 42.3809 193.357 40.1357H189.812V39.3193H194.389ZM200.361 38.75V42.7246C201.742 42.7192 202.864 42.6548 204.132 42.4238L204.239 43.2402C202.854 43.5088 201.64 43.5732 200.071 43.5732H199.33V38.75H200.361ZM206.785 38.2881V43.9385H205.765V41.79H203.144V41.0059H205.765V40.0928H203.144V39.3086H205.765V38.2881H206.785ZM206.785 44.3574V47.7949H200.501V44.3574H206.785ZM201.5 45.1631V46.9678H205.775V45.1631H201.5ZM210.695 49.1914H208.182V48.2783H209.6V39.792H208.182V38.8896H210.695V49.1914Z" fill="#E42E37"/>
</g>
<path d="M31.0889 68.8379V70.0391C31.0889 71.416 31.0889 72.9468 30.6494 75.0928H32.5098V76.4111H27.2949V81.2744H25.6543V76.4111H20.4395V75.0928H29.0381C29.2139 74.3091 29.3311 73.5986 29.4043 72.9541L21.6846 73.335L21.4795 71.9434L29.5068 71.709C29.5288 71.1523 29.5288 70.6323 29.5361 70.1416H21.8896V68.8379H31.0889ZM44.4922 68.0615V81.3184H42.8662V74.2725H40.5957V72.9395H42.8662V68.0615H44.4922ZM39.834 69.2188V74.0674H35.498V76.8506C37.4609 76.8433 39.0503 76.7773 40.8301 76.4551L40.9619 77.7881C38.9844 78.1396 37.2266 78.2129 34.9414 78.2129H33.8867V72.749H38.2373V70.5371H33.8428V69.2188H39.834ZM53.3691 69.3066V78.0811H47.0703V69.3066H53.3691ZM48.6816 70.5811V76.7773H51.7871V70.5811H48.6816ZM57.3828 68.0615V81.3184H55.7422V68.0615H57.3828ZM69.7754 69.3652C69.7754 73.3643 68.6768 76.792 63.7988 79.2236L62.9053 77.9932C65.1978 76.8579 66.5601 75.5396 67.3291 73.9648L63.2129 74.3604L63.0078 72.9541L67.8271 72.6465C67.9956 72.0312 68.0981 71.3794 68.1494 70.6836H63.6963V69.3652H69.7754ZM73.2617 68.0615V73.2471H75.2246V74.5801H73.2617V81.2744H71.6357V68.0615H73.2617ZM82.7393 69.3652C82.7393 73.3643 81.6406 76.792 76.7627 79.2236L75.8691 77.9932C78.1616 76.8579 79.5239 75.5396 80.293 73.9648L76.1768 74.3604L75.9717 72.9541L80.791 72.6465C80.9595 72.0312 81.062 71.3794 81.1133 70.6836H76.6602V69.3652H82.7393ZM86.2256 68.0615V73.2471H88.1885V74.5801H86.2256V81.2744H84.5996V68.0615H86.2256ZM94.8389 68.8086C97.6807 68.8086 99.7754 70.2295 99.7754 72.3828C99.7754 74.3677 98.0688 75.6934 95.6445 75.9277V78.3594H100.918V79.6924H88.8184V78.3594H94.0332V75.9277C91.6235 75.6934 89.917 74.3677 89.9316 72.3828C89.917 70.2295 92.0117 68.8086 94.8389 68.8086ZM94.8389 70.127C92.9053 70.1123 91.5137 70.9912 91.5283 72.3828C91.5137 73.8184 92.9053 74.668 94.8389 74.668C96.8018 74.668 98.1787 73.8184 98.1787 72.3828C98.1787 70.9912 96.8018 70.1123 94.8389 70.127ZM105.825 72.0898C105.825 74.1113 106.66 76.1914 108.535 77.1729L107.612 78.374C106.375 77.7295 105.547 76.5723 105.078 75.1807C104.609 76.6748 103.774 77.9565 102.529 78.667L101.592 77.4658C103.438 76.3818 104.287 74.1846 104.287 72.0898V71.7236H101.973V70.3906H104.287V68.5303H105.825V70.3906H108.11V71.7236H105.825V72.0898ZM113.267 68.0615V81.3037H111.714V74.5947H110.352V80.6592H108.813V68.2959H110.352V73.2471H111.714V68.0615H113.267ZM117.119 68.6475V73.0713C118.892 73.0493 120.605 72.9321 122.437 72.5879L122.656 73.9209C120.518 74.3018 118.613 74.4189 116.562 74.4189H115.508V68.6475H117.119ZM125.835 68.0615V74.8145H124.209V71.3574H120.752V70.0537H124.209V68.0615H125.835ZM125.835 75.3564V78.8135H118.76V79.8242H126.216V81.1426H117.134V77.5684H124.209V76.6455H117.119V75.3564H125.835ZM142.3 68.0762V77.7881H140.659V68.0762H142.3ZM142.666 79.7217V81.04H133.54V76.9092H135.181V79.7217H142.666ZM136.294 71.1523C136.294 72.7197 137.437 74.2139 139.546 74.8145L138.77 76.1035C137.224 75.6494 136.118 74.7119 135.518 73.5107C134.917 74.8145 133.796 75.8398 132.222 76.3232L131.431 75.0488C133.555 74.4043 134.668 72.8223 134.668 71.1523V70.9766H131.841V69.6875H134.668V68.1348H136.309V69.6875H139.121V70.9766H136.294V71.1523ZM156.304 76.0156V77.3486H151.06V81.3184H149.448V77.3486H144.233V76.0156H156.304ZM155.176 69.6289V70.918H151.089C151.243 72.229 152.964 73.5986 155.615 73.9209L155.015 75.21C152.825 74.9316 151.125 73.9648 150.269 72.6904C149.397 73.9795 147.683 74.9316 145.479 75.21L144.893 73.9209C147.537 73.5986 149.272 72.251 149.434 70.918H145.347V69.6289H149.448V68.0762H151.06V69.6289H155.176ZM167.568 68.0615V73.335H169.604V74.6826H167.568V81.3037H165.957V68.0615H167.568ZM164.932 70.0977V71.4014H157.124V70.0977H160.259V68.252H161.885V70.0977H164.932ZM161.079 72.2656C162.983 72.2656 164.404 73.5547 164.404 75.3857C164.404 77.2168 162.983 78.4912 161.079 78.4912C159.146 78.4912 157.725 77.2168 157.739 75.3857C157.725 73.5547 159.146 72.2656 161.079 72.2656ZM161.079 73.5986C160.039 73.5986 159.292 74.3018 159.292 75.3857C159.292 76.4697 160.039 77.1582 161.079 77.1436C162.09 77.1582 162.837 76.4697 162.852 75.3857C162.837 74.3018 162.09 73.5986 161.079 73.5986ZM180.972 69.2773V70.5518C180.957 72.1924 180.957 74.0381 180.444 76.8066L178.804 76.6309C179.316 74.0527 179.316 72.1704 179.331 70.5811H171.421V69.2773H180.972ZM182.231 78.2568V79.5898H170.161V78.2568H174.614V73.6572H176.226V78.2568H182.231ZM185.703 78.96L184.473 83.0615H183.081L183.843 78.96H185.703ZM31.8359 93.0615V106.304H30.2832V93.0615H31.8359ZM29.1406 93.3105V105.659H27.6025V98.9941H25.6982V97.6758H27.6025V93.3105H29.1406ZM24.5264 96.6797C24.5264 98.9209 25.332 101.162 27.2217 102.246L26.2549 103.447C25.0317 102.715 24.2188 101.455 23.7646 99.9463C23.2959 101.58 22.4536 102.971 21.2012 103.755L20.2051 102.539C22.124 101.382 22.959 98.9795 22.959 96.6797V95.8008H20.6592V94.4824H26.665V95.8008H24.5264V96.6797ZM44.8145 94.4385V95.7275H34.0039V94.4385H38.6182V93.0322H40.2295V94.4385H44.8145ZM45.5029 101.528V102.847H42.5732V106.318H40.9326V102.847H37.959V106.318H36.333V102.847H33.4033V101.528H45.5029ZM39.4238 96.3281C42.2217 96.3281 43.9062 97.1191 43.9062 98.5693C43.9062 100.005 42.2217 100.811 39.4238 100.811C36.626 100.811 34.9414 100.005 34.9414 98.5693C34.9414 97.1191 36.626 96.3281 39.4238 96.3281ZM39.4238 97.5586C37.5928 97.5586 36.626 97.8955 36.6406 98.5693C36.626 99.2285 37.5928 99.5801 39.4238 99.5654C41.2549 99.5801 42.2217 99.2285 42.2217 98.5693C42.2217 97.8955 41.2549 97.5586 39.4238 97.5586ZM53.6035 93.6475C55.3174 93.6328 56.665 94.6216 57.002 96.0791H59.3896V93.0615H61.0156V100.166H59.3896V97.3975H57.0166C56.687 98.8843 55.3247 99.8877 53.6035 99.8877C51.5674 99.8877 50.1025 98.584 50.1025 96.7529C50.1025 94.9512 51.5674 93.6328 53.6035 93.6475ZM53.6035 95.0098C52.4609 95.0098 51.6553 95.6836 51.6553 96.7529C51.6553 97.8076 52.4609 98.5107 53.6035 98.5107C54.7168 98.5107 55.5078 97.8076 55.5225 96.7529C55.5078 95.6836 54.7168 95.0098 53.6035 95.0098ZM53.8965 100.781V102.188H59.3896V100.781H61.0156V106.143H52.2852V100.781H53.8965ZM53.8965 104.824H59.3896V103.447H53.8965V104.824ZM66.9336 97.1045C66.9336 99.1553 67.7832 101.221 69.6289 102.217L68.7207 103.418C67.4902 102.766 66.6553 101.602 66.1865 100.21C65.7178 101.711 64.8828 102.993 63.6377 103.726L62.6855 102.495C64.5605 101.411 65.3955 99.1992 65.3955 97.1045V96.6943H63.1396V95.376H65.3955V93.5303H66.9336V95.376H69.1455V96.6943H66.9336V97.1045ZM74.2871 93.0615V106.304H72.7344V93.0615H74.2871ZM71.5918 93.3105V105.659H70.0537V99.4922H68.3252V98.1445H70.0537V93.3105H71.5918ZM78.4326 103.96L77.2021 108.062H75.8105L76.5723 103.96H78.4326ZM94.2529 93.0615V106.318H92.6123V93.0615H94.2529ZM87.1191 94.0283C89.1113 94.0283 90.5615 95.8447 90.5762 98.7012C90.5615 101.587 89.1113 103.389 87.1191 103.389C85.1123 103.389 83.6621 101.587 83.6621 98.7012C83.6621 95.8447 85.1123 94.0283 87.1191 94.0283ZM87.1191 95.4932C85.9912 95.4932 85.2295 96.6797 85.2295 98.7012C85.2295 100.737 85.9912 101.924 87.1191 101.924C88.2324 101.924 88.9941 100.737 88.9941 98.7012C88.9941 96.6797 88.2324 95.4932 87.1191 95.4932ZM108.271 99.4336V100.737H96.2012V99.4336H99.0137V97.749C98.0176 97.3315 97.4463 96.665 97.4463 95.8008C97.4463 94.2188 99.3066 93.2812 102.222 93.2812C105.137 93.2812 106.982 94.2188 106.997 95.8008C106.99 96.6724 106.418 97.3389 105.415 97.749V99.4336H108.271ZM102.222 101.543C105.078 101.528 106.792 102.378 106.807 103.901C106.792 105.439 105.078 106.274 102.222 106.274C99.3359 106.274 97.6074 105.439 97.6074 103.901C97.6074 102.378 99.3359 101.528 102.222 101.543ZM102.222 102.773C100.288 102.773 99.248 103.154 99.2627 103.901C99.248 104.648 100.288 105.044 102.222 105.044C104.111 105.044 105.166 104.648 105.181 103.901C105.166 103.154 104.111 102.773 102.222 102.773ZM102.222 94.541C100.259 94.541 99.1309 94.9805 99.1455 95.8008C99.1309 96.6064 100.259 97.0312 102.222 97.0312C104.17 97.0312 105.312 96.6064 105.312 95.8008C105.312 94.9805 104.17 94.541 102.222 94.541ZM100.654 99.4336H103.789V98.1738C103.313 98.2397 102.786 98.2764 102.222 98.2764C101.658 98.2764 101.13 98.2397 100.654 98.1738V99.4336ZM116.401 93.8086C117.471 93.8086 118.394 94.2041 119.023 94.8633H122.188V93.0615H123.813V100.854H122.188V99.1699H119.023C118.394 99.8291 117.463 100.217 116.401 100.21C114.409 100.225 112.9 98.877 112.9 97.0166C112.9 95.1416 114.409 93.8086 116.401 93.8086ZM116.401 95.2002C115.259 95.2002 114.453 95.9033 114.453 97.0166C114.453 98.1006 115.259 98.833 116.401 98.833C117.5 98.833 118.306 98.1006 118.32 97.0166C118.306 95.9033 117.5 95.2002 116.401 95.2002ZM119.331 101.133C122.114 101.133 123.857 102.085 123.857 103.711C123.857 105.337 122.114 106.289 119.331 106.289C116.562 106.289 114.819 105.337 114.834 103.711C114.819 102.085 116.562 101.133 119.331 101.133ZM119.331 102.378C117.485 102.378 116.416 102.847 116.431 103.711C116.416 104.546 117.485 105.015 119.331 105.015C121.206 105.015 122.261 104.546 122.261 103.711C122.261 102.847 121.206 102.378 119.331 102.378ZM119.756 96.167C119.829 96.438 119.873 96.7163 119.873 97.0166C119.873 97.3096 119.829 97.5879 119.771 97.8516H122.188V96.167H119.756ZM132.588 94.1602C132.588 95.8301 134.448 97.5146 137.275 97.8809L136.631 99.1992C134.382 98.8623 132.595 97.7563 131.738 96.2549C130.867 97.7563 129.087 98.8623 126.86 99.1992L126.216 97.8809C129.014 97.5146 130.874 95.8301 130.874 94.1602V93.4863H132.588V94.1602ZM137.759 100.342V101.689H132.5V106.304H130.889V101.689H125.688V100.342H137.759ZM150.723 99.2285V100.547H138.652V99.2285H150.723ZM144.673 101.426C147.529 101.426 149.243 102.319 149.258 103.857C149.243 105.41 147.529 106.289 144.673 106.289C141.787 106.289 140.059 105.41 140.059 103.857C140.059 102.319 141.787 101.426 144.673 101.426ZM144.673 102.7C142.739 102.7 141.699 103.096 141.714 103.857C141.699 104.619 142.739 105.015 144.673 105.015C146.562 105.015 147.617 104.619 147.632 103.857C147.617 103.096 146.562 102.7 144.673 102.7ZM149.639 93.6914V95.0244H145.815C146.057 96.123 147.646 97.1118 150.151 97.3535L149.58 98.6426C147.178 98.3862 145.391 97.4414 144.673 96.0938C143.955 97.4341 142.197 98.3862 139.795 98.6426L139.238 97.3535C141.692 97.1118 143.289 96.123 143.545 95.0244H139.751V93.6914H149.639ZM167.275 103.374V104.707H155.176V103.374H160.391V100.796H156.509V93.9404H158.135V96.1084H164.272V93.9404H165.898V100.796H162.002V103.374H167.275ZM158.135 99.4775H164.272V97.4121H158.135V99.4775ZM179.507 93.0615V106.304H177.939V99.6094H176.475V105.63H174.951V93.3105H176.475V98.2764H177.939V93.0615H179.507ZM170.352 94.585V101.572C171.494 101.55 172.747 101.455 174.131 101.177L174.292 102.598C172.505 102.92 170.996 103.008 169.59 103.008H168.711V94.585H170.352ZM187.9 94.1748V95.2295H190.566V93.0762H192.192V102.715H190.566V99.375H187.9V100.518H181.675V94.1748H187.9ZM183.301 95.4639V99.2432H186.289V95.4639H183.301ZM192.485 104.722V106.04H183.462V101.821H185.117V104.722H192.485ZM187.9 98.0713H190.566V96.5625H187.9V98.0713ZM204.585 104.722L203.516 103.667L206.724 100.474H198.945V98.9355H206.724L203.516 95.7422L204.585 94.6875L209.595 99.6973L204.585 104.722Z" fill="white"/>
<rect x="60" y="148" width="254" height="36" rx="7" fill="#E42E37"/>
<path d="M104.092 162.624V164.24L95.0196 164.688L94.7796 162.896L104.092 162.624ZM95.2596 159.408H104.556V161.104H95.2596V159.408ZM93.7076 166.432H107.116V168.144H93.7076V166.432ZM99.3396 167.792H101.452V173.392H99.3396V167.792ZM103.58 159.408H105.644V160.752C105.644 161.296 105.633 161.872 105.612 162.48C105.601 163.077 105.553 163.733 105.468 164.448C105.382 165.163 105.244 165.963 105.052 166.848L103.004 166.624C103.292 165.376 103.457 164.283 103.5 163.344C103.553 162.405 103.58 161.536 103.58 160.736V159.408ZM117.898 158.576H120.01V173.44H117.898V158.576ZM115.578 163.92H118.33V165.632H115.578V163.92ZM108.122 168.272H109.338C110.149 168.272 110.906 168.261 111.61 168.24C112.325 168.219 113.024 168.181 113.706 168.128C114.389 168.064 115.088 167.973 115.802 167.856L115.994 169.584C115.258 169.701 114.538 169.792 113.834 169.856C113.13 169.92 112.41 169.963 111.674 169.984C110.949 170.005 110.17 170.016 109.338 170.016H108.122V168.272ZM108.106 159.84H114.778V165.424H110.234V168.784H108.122V163.744H112.682V161.536H108.106V159.84ZM122.265 159.92H129.385V169.888H122.265V159.92ZM127.305 161.6H124.361V168.208H127.305V161.6ZM131.705 158.576H133.833V173.44H131.705V158.576ZM143.967 160.016H146.031C146.031 161.168 145.94 162.267 145.759 163.312C145.588 164.357 145.268 165.349 144.799 166.288C144.33 167.227 143.663 168.107 142.799 168.928C141.935 169.749 140.81 170.512 139.423 171.216L138.287 169.584C139.439 169.008 140.383 168.395 141.119 167.744C141.866 167.083 142.442 166.379 142.847 165.632C143.263 164.875 143.551 164.053 143.711 163.168C143.882 162.283 143.967 161.323 143.967 160.288V160.016ZM139.215 160.016H145.215V161.712H139.215V160.016ZM144.015 163.648V165.28L138.703 165.792L138.431 163.984L144.015 163.648ZM147.823 158.576H149.967V173.392H147.823V158.576ZM149.423 164.256H152.031V166H149.423V164.256ZM157.886 160.016H159.95C159.95 161.168 159.859 162.267 159.678 163.312C159.507 164.357 159.187 165.349 158.718 166.288C158.248 167.227 157.582 168.107 156.718 168.928C155.854 169.749 154.728 170.512 153.342 171.216L152.206 169.584C153.358 169.008 154.302 168.395 155.038 167.744C155.784 167.083 156.36 166.379 156.766 165.632C157.182 164.875 157.47 164.053 157.63 163.168C157.8 162.283 157.886 161.323 157.886 160.288V160.016ZM153.134 160.016H159.134V161.712H153.134V160.016ZM157.934 163.648V165.28L152.622 165.792L152.35 163.984L157.934 163.648ZM161.742 158.576H163.886V173.392H161.742V158.576ZM163.342 164.256H165.95V166H163.342V164.256ZM171.836 166.928H173.948V170.304H171.836V166.928ZM172.892 159.36C173.948 159.36 174.892 159.531 175.724 159.872C176.567 160.203 177.228 160.672 177.708 161.28C178.188 161.888 178.428 162.608 178.428 163.44C178.428 164.261 178.188 164.981 177.708 165.6C177.228 166.219 176.567 166.699 175.724 167.04C174.892 167.371 173.948 167.536 172.892 167.536C171.847 167.536 170.903 167.371 170.06 167.04C169.228 166.699 168.567 166.219 168.076 165.6C167.596 164.981 167.356 164.261 167.356 163.44C167.356 162.608 167.596 161.888 168.076 161.28C168.567 160.672 169.228 160.203 170.06 159.872C170.903 159.531 171.847 159.36 172.892 159.36ZM172.892 161.04C172.22 161.04 171.623 161.136 171.1 161.328C170.588 161.52 170.183 161.792 169.884 162.144C169.596 162.496 169.452 162.928 169.452 163.44C169.452 163.941 169.596 164.373 169.884 164.736C170.183 165.088 170.588 165.36 171.1 165.552C171.623 165.744 172.22 165.84 172.892 165.84C173.575 165.84 174.172 165.744 174.684 165.552C175.207 165.36 175.612 165.088 175.9 164.736C176.188 164.373 176.332 163.941 176.332 163.44C176.332 162.928 176.188 162.496 175.9 162.144C175.612 161.792 175.207 161.52 174.684 161.328C174.172 161.136 173.575 161.04 172.892 161.04ZM166.204 169.968H179.628V171.696H166.204V169.968ZM182.699 162.688H184.315V163.072C184.315 163.84 184.251 164.603 184.123 165.36C184.006 166.107 183.814 166.816 183.547 167.488C183.291 168.149 182.955 168.752 182.539 169.296C182.134 169.829 181.633 170.261 181.035 170.592L179.835 168.992C180.358 168.683 180.801 168.309 181.163 167.872C181.537 167.435 181.835 166.955 182.059 166.432C182.283 165.899 182.443 165.349 182.539 164.784C182.646 164.208 182.699 163.637 182.699 163.072V162.688ZM183.115 162.688H184.731V163.072C184.731 163.627 184.779 164.181 184.875 164.736C184.982 165.28 185.147 165.797 185.371 166.288C185.595 166.779 185.889 167.232 186.251 167.648C186.614 168.053 187.057 168.395 187.579 168.672L186.427 170.256C185.638 169.84 184.998 169.264 184.507 168.528C184.017 167.781 183.659 166.939 183.435 166C183.222 165.061 183.115 164.085 183.115 163.072V162.688ZM180.331 161.104H187.083V162.816H180.331V161.104ZM182.699 159.088H184.731V162.464H182.699V159.088ZM190.923 158.592H192.955V173.408H190.923V158.592ZM189.163 164.272H191.611V166H189.163V164.272ZM187.739 158.832H189.723V172.752H187.739V158.832ZM194.842 159.2H196.954V165.264H194.842V159.2ZM194.842 164H196.09C196.783 164 197.482 163.984 198.186 163.952C198.89 163.92 199.605 163.867 200.33 163.792C201.066 163.717 201.818 163.616 202.586 163.488L202.826 165.184C202.037 165.333 201.258 165.451 200.49 165.536C199.733 165.611 198.986 165.664 198.25 165.696C197.525 165.728 196.805 165.744 196.09 165.744H194.842V164ZM200.714 160.656H204.762V162.352H200.714V160.656ZM204.298 158.592H206.442V166.064H204.298V158.592ZM196.65 166.624H206.442V170.688H198.794V172.48H196.666V169.12H204.298V168.304H196.65V166.624ZM196.666 171.584H206.794V173.264H196.666V171.584ZM221.305 158.608H223.433V169.44H221.305V158.608ZM213.561 171.456H223.817V173.168H213.561V171.456ZM213.561 168.496H215.689V172.448H213.561V168.496ZM214.729 161.52H216.473V162.048C216.473 162.933 216.319 163.771 216.009 164.56C215.711 165.349 215.247 166.037 214.617 166.624C213.999 167.2 213.215 167.627 212.265 167.904L211.257 166.24C211.855 166.059 212.372 165.824 212.809 165.536C213.257 165.237 213.62 164.901 213.897 164.528C214.185 164.155 214.393 163.76 214.521 163.344C214.66 162.917 214.729 162.485 214.729 162.048V161.52ZM215.129 161.52H216.857V162.048C216.857 162.453 216.927 162.859 217.065 163.264C217.215 163.659 217.428 164.032 217.705 164.384C217.993 164.736 218.356 165.051 218.793 165.328C219.241 165.605 219.764 165.824 220.361 165.984L219.369 167.648C218.42 167.381 217.631 166.971 217.001 166.416C216.372 165.861 215.903 165.205 215.593 164.448C215.284 163.691 215.129 162.891 215.129 162.048V161.52ZM211.753 160.304H219.849V161.968H211.753V160.304ZM214.729 158.688H216.873V160.992H214.729V158.688ZM230.664 168.08H232.792V173.44H230.664V168.08ZM225.048 167.472H238.456V169.2H225.048V167.472ZM230.648 161.264H232.52V161.616C232.52 162.107 232.435 162.587 232.264 163.056C232.104 163.515 231.859 163.947 231.528 164.352C231.198 164.747 230.787 165.109 230.296 165.44C229.806 165.76 229.24 166.032 228.6 166.256C227.96 166.469 227.251 166.624 226.472 166.72L225.72 165.04C226.392 164.965 226.99 164.843 227.512 164.672C228.046 164.501 228.51 164.299 228.904 164.064C229.299 163.829 229.624 163.579 229.88 163.312C230.147 163.035 230.339 162.752 230.456 162.464C230.584 162.165 230.648 161.883 230.648 161.616V161.264ZM230.936 161.264H232.792V161.616C232.792 161.872 232.856 162.149 232.984 162.448C233.123 162.736 233.32 163.019 233.576 163.296C233.832 163.563 234.158 163.819 234.552 164.064C234.947 164.299 235.406 164.501 235.928 164.672C236.462 164.843 237.059 164.965 237.72 165.04L236.984 166.72C236.195 166.635 235.48 166.48 234.84 166.256C234.211 166.021 233.651 165.744 233.16 165.424C232.67 165.104 232.259 164.741 231.928 164.336C231.598 163.92 231.347 163.483 231.176 163.024C231.016 162.565 230.936 162.096 230.936 161.616V161.264ZM226.248 160.288H237.224V161.968H226.248V160.288ZM230.664 158.64H232.792V160.864H230.664V158.64ZM248.455 158.608H250.583V173.424H248.455V158.608ZM250.103 164.384H252.711V166.144H250.103V164.384ZM238.887 160.784H247.527V162.48H238.887V160.784ZM243.239 163.328C243.954 163.328 244.594 163.483 245.159 163.792C245.724 164.091 246.167 164.501 246.487 165.024C246.818 165.547 246.983 166.155 246.983 166.848C246.983 167.541 246.818 168.155 246.487 168.688C246.167 169.211 245.724 169.627 245.159 169.936C244.604 170.235 243.964 170.384 243.239 170.384C242.524 170.384 241.879 170.235 241.303 169.936C240.738 169.627 240.29 169.211 239.959 168.688C239.639 168.155 239.479 167.541 239.479 166.848C239.479 166.155 239.639 165.547 239.959 165.024C240.29 164.501 240.738 164.091 241.303 163.792C241.879 163.483 242.524 163.328 243.239 163.328ZM243.239 165.056C242.898 165.056 242.599 165.125 242.343 165.264C242.087 165.403 241.884 165.605 241.735 165.872C241.586 166.139 241.511 166.464 241.511 166.848C241.511 167.221 241.586 167.547 241.735 167.824C241.884 168.091 242.087 168.299 242.343 168.448C242.599 168.587 242.898 168.656 243.239 168.656C243.57 168.656 243.863 168.587 244.119 168.448C244.375 168.299 244.578 168.091 244.727 167.824C244.876 167.547 244.951 167.221 244.951 166.848C244.951 166.464 244.876 166.139 244.727 165.872C244.578 165.605 244.375 165.403 244.119 165.264C243.863 165.125 243.57 165.056 243.239 165.056ZM242.151 158.848H244.295V161.44H242.151V158.848ZM263.094 158.592H265.222V173.408H263.094V158.592ZM258.726 160.128H260.822C260.822 161.259 260.71 162.341 260.486 163.376C260.272 164.4 259.91 165.365 259.398 166.272C258.896 167.179 258.203 168.021 257.318 168.8C256.443 169.568 255.35 170.272 254.038 170.912L252.918 169.232C254.347 168.539 255.483 167.776 256.326 166.944C257.179 166.101 257.792 165.152 258.166 164.096C258.539 163.029 258.726 161.835 258.726 160.512V160.128ZM253.718 160.128H259.718V161.824H253.718V160.128Z" fill="white"/>
<path d="M284.223 165L279.131 159.767C279.089 159.725 279.056 159.675 279.033 159.62C279.011 159.564 279 159.505 279 159.446C279 159.387 279.013 159.328 279.036 159.273C279.059 159.218 279.093 159.169 279.136 159.127C279.179 159.086 279.229 159.053 279.284 159.031C279.34 159.01 279.399 158.999 279.458 159C279.518 159.001 279.576 159.014 279.631 159.038C279.685 159.062 279.734 159.097 279.775 159.14L285.172 164.686C285.254 164.77 285.3 164.883 285.3 165C285.3 165.117 285.254 165.23 285.172 165.314L279.775 170.86C279.734 170.903 279.685 170.938 279.631 170.962C279.576 170.986 279.518 170.999 279.458 171C279.399 171.001 279.34 170.99 279.284 170.969C279.229 170.947 279.179 170.914 279.136 170.873C279.093 170.831 279.059 170.782 279.036 170.727C279.013 170.672 279 170.613 279 170.554C279 170.495 279.011 170.436 279.033 170.38C279.056 170.325 279.089 170.275 279.131 170.233L284.223 165Z" fill="white" stroke="white" stroke-width="0.5"/>
<path d="M22.8418 124.904H22.0996L22.1582 123.449L20.9277 124.23L20.5566 123.586L21.8555 122.922L20.5566 122.248L20.9277 121.604L22.1582 122.385L22.0996 120.93H22.8418L22.7734 122.385L24.0039 121.604L24.3848 122.248L23.0859 122.922L24.3848 123.586L24.0039 124.23L22.7734 123.449L22.8418 124.904ZM30.0781 120.734C31.2646 120.734 32.1338 121.74 32.2754 123.361H34.082V120.08H35V128.85H34.082V124.113H32.2852C32.1826 125.817 31.2939 126.877 30.0781 126.877C28.7695 126.877 27.8516 125.686 27.8613 123.801C27.8516 121.926 28.7695 120.734 30.0781 120.734ZM30.0781 121.564C29.2871 121.564 28.7402 122.424 28.7402 123.801C28.7402 125.188 29.2871 126.047 30.0781 126.047C30.8691 126.047 31.416 125.188 31.416 123.801C31.416 122.424 30.8691 121.564 30.0781 121.564ZM43.5742 120.344V121.047H42.3047V122.561H43.5352V123.273H37.1191V122.561H38.3594V121.047H37.0801V120.344H43.5742ZM44.3262 123.918V124.65H36.3477V123.918H44.3262ZM43.3203 125.334V127.336H38.2227V128.039H43.5645V128.742H37.3145V126.682H42.4023V126.027H37.3047V125.334H43.3203ZM39.2773 122.561H41.377V121.047H39.2773V122.561ZM54.9219 120.08V128.83H54.0332V124.348H52.9102V128.381H52.041V120.256H52.9102V123.586H54.0332V120.08H54.9219ZM48.7695 121.115V125.783C49.5801 125.778 50.4639 125.715 51.4551 125.52L51.5527 126.33C50.3516 126.545 49.3457 126.604 48.4082 126.604H47.8418V121.115H48.7695ZM66.5234 126.965V127.736H58.5156V126.965H62.041V124.943H59.4336V120.783H65.5664V124.943H62.959V126.965H66.5234ZM60.332 121.525V124.211H64.6582V121.525H60.332ZM75.1465 124.465V125.207H67.1582V124.465H75.1465ZM74.248 122.824V123.586H68.1543V120.441H74.1602V121.184H69.082V122.824H74.248ZM74.3066 127.883V128.645H68.1641V126.066H69.082V127.883H74.3066ZM80.6641 120.48C81.8164 120.471 82.7051 121.14 82.9004 122.121H84.6094V120.08H85.5371V124.777H84.6094V122.883H82.9102C82.7197 123.889 81.8262 124.562 80.6641 124.562C79.3262 124.562 78.3691 123.723 78.3691 122.512C78.3691 121.32 79.3262 120.471 80.6641 120.48ZM80.6641 121.252C79.834 121.252 79.2578 121.76 79.2578 122.512C79.2578 123.264 79.834 123.781 80.6641 123.781C81.4746 123.781 82.0508 123.264 82.0508 122.512C82.0508 121.76 81.4746 121.252 80.6641 121.252ZM80.752 125.197V126.213H84.6094V125.197H85.5371V128.723H79.834V125.197H80.752ZM80.752 127.961H84.6094V126.945H80.752V127.961ZM89.502 122.766C89.502 124.143 90.1367 125.549 91.3477 126.193L90.8301 126.877C89.9854 126.428 89.3945 125.588 89.082 124.592C88.7646 125.661 88.1787 126.579 87.334 127.082L86.7871 126.379C87.998 125.676 88.623 124.182 88.6328 122.766V122.414H87.0508V121.652H88.6328V120.393H89.502V121.652H91.0547V122.414H89.502V122.766ZM94.3945 120.08V128.83H93.5059V120.08H94.3945ZM92.6172 120.266V128.391H91.7383V124.26H90.4785V123.488H91.7383V120.266H92.6172ZM102.295 121.525V122.277H97.9492V121.525H99.668V120.334H100.586V121.525H102.295ZM100.127 122.805C101.24 122.805 102.021 123.635 102.031 124.816C102.021 126.008 101.24 126.848 100.127 126.848C99.0332 126.848 98.2227 126.008 98.2324 124.816C98.2227 123.635 99.0332 122.805 100.127 122.805ZM100.127 123.576C99.4922 123.576 99.0527 124.094 99.0527 124.816C99.0527 125.559 99.4922 126.057 100.127 126.057C100.752 126.057 101.211 125.559 101.211 124.816C101.211 124.094 100.752 123.576 100.127 123.576ZM105.459 120.08V128.83H104.58V124.484H103.574V128.42H102.695V120.275H103.574V123.723H104.58V120.08H105.459ZM113.496 120.08V122.297H114.756V123.059H113.496V125.246H112.559V120.08H113.496ZM110.664 125.412C112.451 125.412 113.564 126.037 113.564 127.111C113.564 128.186 112.451 128.82 110.664 128.811C108.857 128.82 107.725 128.186 107.725 127.111C107.725 126.037 108.857 125.412 110.664 125.412ZM110.664 126.164C109.395 126.154 108.633 126.506 108.643 127.111C108.633 127.717 109.395 128.068 110.664 128.068C111.904 128.068 112.666 127.717 112.676 127.111C112.666 126.506 111.904 126.154 110.664 126.164ZM110.889 120.725V121.477H107.9V123.859C109.624 123.854 110.596 123.801 111.699 123.576L111.787 124.328C110.615 124.572 109.57 124.611 107.676 124.611H106.982V120.725H110.889Z" fill="#C7C7C7"/>
<defs>
<clipPath id="clip0_1444_2063">
<rect width="130" height="80" fill="white" transform="translate(225 44)"/>
</clipPath>
</defs>
</svg>
