<svg width="124" height="41" viewBox="0 0 124 41" fill="none" xmlns="http://www.w3.org/2000/svg">
<path d="M111.113 40.7767V0H124V40.7767H111.113ZM109.843 1.69315V37.2493H84.8692V1.69315H109.843ZM97.9911 13.5452H96.7213V25.3973H97.9911V13.5452Z" fill="black"/>
<path d="M69.0429 6.34932V0H81.9297V40.6356H69.0429V36.5438C68.1023 36.8574 66.7854 37.1396 65.0922 37.3904C63.4304 37.6413 61.5805 37.8451 59.5424 38.0018C57.5357 38.1586 55.5134 38.2213 53.4753 38.19C51.4373 38.1586 49.556 38.0332 47.8315 37.8137C46.1383 37.5629 44.7744 37.1866 43.7397 36.6849C42.705 36.1519 42.1876 35.4621 42.1876 34.6155L42.1406 14.3918H52.1114V13.1219H42.1406V1.69315H65.4214V18.9069C65.4214 19.4712 65.0295 20.0043 64.2456 20.5059C63.4931 20.9763 62.5211 21.3839 61.3297 21.7288C60.1695 22.0737 58.9937 22.3402 57.8023 22.5283C56.6421 22.6851 55.6545 22.7478 54.8392 22.7164V23.9863C56.94 23.9236 58.6802 23.7355 60.0598 23.4219C61.4708 23.077 62.5995 22.7164 63.4461 22.3402C64.324 21.9639 64.9668 21.6817 65.3744 21.4936H65.4214L69.0429 32.1228V19.4712H66.6913V6.34932H69.0429Z" fill="black"/>
<path d="M36.9671 22.6694H39.7891V34.5215H26.9023V40.6356H12.9338V34.5215H0V22.6694H34.2393H23.8452C24.7271 21.1644 24.5507 19.9259 24.7388 19.3301H1.97534V12.1342H25.7735C25.8049 11.8834 25.8206 11.6326 25.8206 11.3817C25.8206 11.0995 25.8206 10.833 25.8206 10.5822H1.26986V0H38.5192C38.5192 4.421 38.4722 8.13653 38.3781 11.1466C38.3154 14.1566 38.1743 16.5866 37.9548 18.4365C37.7353 20.2865 37.3669 21.7523 36.9671 22.6694Z" fill="black"/>
</svg>
